<?xml version="1.0" encoding="utf-8"?>
<svg xmlns="http://www.w3.org/2000/svg" xmlns:xlink="http://www.w3.org/1999/xlink" width="600" height="400" viewBox="0 0 2400 1600">
<defs>
  <clipPath id="clip170">
    <rect x="0" y="0" width="2400" height="1600"/>
  </clipPath>
</defs>
<path clip-path="url(#clip170)" d="M0 1600 L2400 1600 L2400 0 L0 0  Z" fill="#ffffff" fill-rule="evenodd" fill-opacity="1"/>
<defs>
  <clipPath id="clip171">
    <rect x="480" y="0" width="1681" height="1600"/>
  </clipPath>
</defs>
<path clip-path="url(#clip170)" d="M447.244 1552.76 L1952.76 1552.76 L1952.76 47.2441 L447.244 47.2441  Z" fill="#ffffff" fill-rule="evenodd" fill-opacity="1"/>
<defs>
  <clipPath id="clip172">
    <rect x="447" y="47" width="1507" height="1507"/>
  </clipPath>
</defs>
<polyline clip-path="url(#clip172)" style="stroke:#008b8b; stroke-linecap:round; stroke-linejoin:round; stroke-width:0.521833; stroke-opacity:0.9; fill:none" points="1737.68,800 1468.84,262.317 "/>
<polyline clip-path="url(#clip172)" style="stroke:#008b8b; stroke-linecap:round; stroke-linejoin:round; stroke-width:0.878961; stroke-opacity:0.9; fill:none" points="1737.68,800 931.159,262.317 "/>
<polyline clip-path="url(#clip172)" style="stroke:#008b8b; stroke-linecap:round; stroke-linejoin:round; stroke-width:1.48985; stroke-opacity:0.9; fill:none" points="1737.68,800 662.317,800 "/>
<polyline clip-path="url(#clip172)" style="stroke:#008b8b; stroke-linecap:round; stroke-linejoin:round; stroke-width:2.985; stroke-opacity:0.9; fill:none" points="1737.68,800 931.159,1337.68 "/>
<polyline clip-path="url(#clip172)" style="stroke:#008b8b; stroke-linecap:round; stroke-linejoin:round; stroke-width:8.73319; stroke-opacity:0.9; fill:none" points="1737.68,800 1468.84,1337.68 "/>
<polyline clip-path="url(#clip172)" style="stroke:#008b8b; stroke-linecap:round; stroke-linejoin:round; stroke-width:75.9814; stroke-opacity:0.9; fill:none" points="1468.84,262.317 931.159,262.317 "/>
<polyline clip-path="url(#clip172)" style="stroke:#008b8b; stroke-linecap:round; stroke-linejoin:round; stroke-width:18.9191; stroke-opacity:0.9; fill:none" points="1468.84,262.317 662.317,800 "/>
<polyline clip-path="url(#clip172)" style="stroke:#008b8b; stroke-linecap:round; stroke-linejoin:round; stroke-width:3.44879; stroke-opacity:0.9; fill:none" points="1468.84,262.317 931.159,1337.68 "/>
<polyline clip-path="url(#clip172)" style="stroke:#008b8b; stroke-linecap:round; stroke-linejoin:round; stroke-width:0.673406; stroke-opacity:0.9; fill:none" points="1468.84,262.317 1468.84,1337.68 "/>
<polyline clip-path="url(#clip172)" style="stroke:#008b8b; stroke-linecap:round; stroke-linejoin:round; stroke-width:64.418; stroke-opacity:0.9; fill:none" points="931.159,262.317 662.317,800 "/>
<polyline clip-path="url(#clip172)" style="stroke:#008b8b; stroke-linecap:round; stroke-linejoin:round; stroke-width:0.322716; stroke-opacity:0.9; fill:none" points="931.159,262.317 931.159,1337.68 "/>
<polyline clip-path="url(#clip172)" style="stroke:#008b8b; stroke-linecap:round; stroke-linejoin:round; stroke-width:0.936797; stroke-opacity:0.9; fill:none" points="931.159,262.317 1468.84,1337.68 "/>
<polyline clip-path="url(#clip172)" style="stroke:#008b8b; stroke-linecap:round; stroke-linejoin:round; stroke-width:3.83171; stroke-opacity:0.9; fill:none" points="662.317,800 931.159,1337.68 "/>
<polyline clip-path="url(#clip172)" style="stroke:#008b8b; stroke-linecap:round; stroke-linejoin:round; stroke-width:2.28652; stroke-opacity:0.9; fill:none" points="662.317,800 1468.84,1337.68 "/>
<polyline clip-path="url(#clip172)" style="stroke:#008b8b; stroke-linecap:round; stroke-linejoin:round; stroke-width:1.75321; stroke-opacity:0.9; fill:none" points="931.159,1337.68 1468.84,1337.68 "/>
<path clip-path="url(#clip172)" d="M1833.55 800 L1833.24 792.384 L1832.34 784.816 L1830.83 777.343 L1828.74 770.014 L1826.07 762.875 L1822.84 755.97 L1819.07 749.344 L1814.79 743.038 L1810.02 737.092 L1804.79 731.544 L1799.14 726.429 L1793.1 721.779 L1786.71 717.623 L1780.01 713.988 L1773.04 710.897 L1765.85 708.369 L1758.48 706.421 L1750.98 705.064 L1743.4 704.308 L1735.78 704.156 L1728.17 704.611 L1720.62 705.668 L1713.18 707.322 L1705.89 709.562 L1698.81 712.373 L1691.97 715.739 L1685.42 719.637 L1679.2 724.044 L1673.35 728.93 L1667.91 734.266 L1662.9 740.018 L1658.38 746.149 L1654.35 752.62 L1650.85 759.391 L1647.89 766.418 L1645.51 773.658 L1643.71 781.064 L1642.5 788.591 L1641.9 796.189 L1641.9 803.811 L1642.5 811.409 L1643.71 818.936 L1645.51 826.342 L1647.89 833.582 L1650.85 840.609 L1654.35 847.38 L1658.38 853.851 L1662.9 859.982 L1667.91 865.734 L1673.35 871.07 L1679.2 875.956 L1685.42 880.363 L1691.97 884.261 L1698.81 887.627 L1705.89 890.438 L1713.18 892.678 L1720.62 894.332 L1728.17 895.389 L1735.78 895.844 L1743.4 895.692 L1750.98 894.936 L1758.48 893.579 L1765.85 891.631 L1773.04 889.103 L1780.01 886.012 L1786.71 882.377 L1793.1 878.221 L1799.14 873.571 L1804.79 868.456 L1810.02 862.908 L1814.79 856.962 L1819.07 850.656 L1822.84 844.03 L1826.07 837.125 L1828.74 829.986 L1830.83 822.657 L1832.34 815.184 L1833.24 807.616 L1833.55 800 L1833.55 800  Z" fill="#ed5d92" fill-rule="evenodd" fill-opacity="1"/>
<polyline clip-path="url(#clip172)" style="stroke:#000000; stroke-linecap:round; stroke-linejoin:round; stroke-width:4; stroke-opacity:0; fill:none" points="1833.55,800 1833.24,792.384 1832.34,784.816 1830.83,777.343 1828.74,770.014 1826.07,762.875 1822.84,755.97 1819.07,749.344 1814.79,743.038 1810.02,737.092 1804.79,731.544 1799.14,726.429 1793.1,721.779 1786.71,717.623 1780.01,713.988 1773.04,710.897 1765.85,708.369 1758.48,706.421 1750.98,705.064 1743.4,704.308 1735.78,704.156 1728.17,704.611 1720.62,705.668 1713.18,707.322 1705.89,709.562 1698.81,712.373 1691.97,715.739 1685.42,719.637 1679.2,724.044 1673.35,728.93 1667.91,734.266 1662.9,740.018 1658.38,746.149 1654.35,752.62 1650.85,759.391 1647.89,766.418 1645.51,773.658 1643.71,781.064 1642.5,788.591 1641.9,796.189 1641.9,803.811 1642.5,811.409 1643.71,818.936 1645.51,826.342 1647.89,833.582 1650.85,840.609 1654.35,847.38 1658.38,853.851 1662.9,859.982 1667.91,865.734 1673.35,871.07 1679.2,875.956 1685.42,880.363 1691.97,884.261 1698.81,887.627 1705.89,890.438 1713.18,892.678 1720.62,894.332 1728.17,895.389 1735.78,895.844 1743.4,895.692 1750.98,894.936 1758.48,893.579 1765.85,891.631 1773.04,889.103 1780.01,886.012 1786.71,882.377 1793.1,878.221 1799.14,873.571 1804.79,868.456 1810.02,862.908 1814.79,856.962 1819.07,850.656 1822.84,844.03 1826.07,837.125 1828.74,829.986 1830.83,822.657 1832.34,815.184 1833.24,807.616 1833.55,800 "/>
<path clip-path="url(#clip172)" d="M1564.7 262.317 L1564.4 254.701 L1563.49 247.133 L1561.99 239.661 L1559.89 232.332 L1557.22 225.192 L1553.99 218.288 L1550.23 211.661 L1545.95 205.355 L1541.18 199.41 L1535.95 193.861 L1530.3 188.746 L1524.26 184.096 L1517.87 179.94 L1511.17 176.305 L1504.2 173.214 L1497.01 170.687 L1489.64 168.738 L1482.14 167.381 L1474.56 166.625 L1466.94 166.473 L1459.33 166.928 L1451.78 167.985 L1444.34 169.639 L1437.05 171.879 L1429.97 174.691 L1423.13 178.056 L1416.58 181.955 L1410.36 186.361 L1404.51 191.248 L1399.06 196.584 L1394.06 202.335 L1389.53 208.466 L1385.51 214.937 L1382.01 221.708 L1379.05 228.735 L1376.67 235.975 L1374.87 243.382 L1373.66 250.908 L1373.05 258.506 L1373.05 266.128 L1373.66 273.727 L1374.87 281.253 L1376.67 288.659 L1379.05 295.899 L1382.01 302.927 L1385.51 309.697 L1389.53 316.169 L1394.06 322.299 L1399.06 328.051 L1404.51 333.387 L1410.36 338.273 L1416.58 342.68 L1423.13 346.578 L1429.97 349.944 L1437.05 352.755 L1444.34 354.995 L1451.78 356.649 L1459.33 357.707 L1466.94 358.161 L1474.56 358.01 L1482.14 357.253 L1489.64 355.896 L1497.01 353.948 L1504.2 351.42 L1511.17 348.329 L1517.87 344.694 L1524.26 340.539 L1530.3 335.888 L1535.95 330.773 L1541.18 325.225 L1545.95 319.279 L1550.23 312.973 L1553.99 306.347 L1557.22 299.442 L1559.89 292.303 L1561.99 284.974 L1563.49 277.502 L1564.4 269.934 L1564.7 262.317 L1564.7 262.317  Z" fill="#ed5d92" fill-rule="evenodd" fill-opacity="1"/>
<polyline clip-path="url(#clip172)" style="stroke:#000000; stroke-linecap:round; stroke-linejoin:round; stroke-width:4; stroke-opacity:0; fill:none" points="1564.7,262.317 1564.4,254.701 1563.49,247.133 1561.99,239.661 1559.89,232.332 1557.22,225.192 1553.99,218.288 1550.23,211.661 1545.95,205.355 1541.18,199.41 1535.95,193.861 1530.3,188.746 1524.26,184.096 1517.87,179.94 1511.17,176.305 1504.2,173.214 1497.01,170.687 1489.64,168.738 1482.14,167.381 1474.56,166.625 1466.94,166.473 1459.33,166.928 1451.78,167.985 1444.34,169.639 1437.05,171.879 1429.97,174.691 1423.13,178.056 1416.58,181.955 1410.36,186.361 1404.51,191.248 1399.06,196.584 1394.06,202.335 1389.53,208.466 1385.51,214.937 1382.01,221.708 1379.05,228.735 1376.67,235.975 1374.87,243.382 1373.66,250.908 1373.05,258.506 1373.05,266.128 1373.66,273.727 1374.87,281.253 1376.67,288.659 1379.05,295.899 1382.01,302.927 1385.51,309.697 1389.53,316.169 1394.06,322.299 1399.06,328.051 1404.51,333.387 1410.36,338.273 1416.58,342.68 1423.13,346.578 1429.97,349.944 1437.05,352.755 1444.34,354.995 1451.78,356.649 1459.33,357.707 1466.94,358.161 1474.56,358.01 1482.14,357.253 1489.64,355.896 1497.01,353.948 1504.2,351.42 1511.17,348.329 1517.87,344.694 1524.26,340.539 1530.3,335.888 1535.95,330.773 1541.18,325.225 1545.95,319.279 1550.23,312.973 1553.99,306.347 1557.22,299.442 1559.89,292.303 1561.99,284.974 1563.49,277.502 1564.4,269.934 1564.7,262.317 "/>
<path clip-path="url(#clip172)" d="M1027.02 262.317 L1026.72 254.701 L1025.81 247.133 L1024.31 239.661 L1022.21 232.332 L1019.54 225.192 L1016.31 218.288 L1012.54 211.661 L1008.26 205.355 L1003.49 199.41 L998.267 193.861 L992.616 188.746 L986.576 184.096 L980.186 179.94 L973.486 176.305 L966.519 173.214 L959.328 170.687 L951.959 168.738 L944.458 167.381 L936.873 166.625 L929.253 166.473 L921.644 166.928 L914.095 167.985 L906.654 169.639 L899.369 171.879 L892.284 174.691 L885.445 178.056 L878.895 181.955 L872.675 186.361 L866.825 191.248 L861.382 196.584 L856.38 202.335 L851.851 208.466 L847.823 214.937 L844.322 221.708 L841.37 228.735 L838.986 235.975 L837.185 243.382 L835.977 250.908 L835.372 258.506 L835.372 266.128 L835.977 273.727 L837.185 281.253 L838.986 288.659 L841.37 295.899 L844.322 302.927 L847.823 309.697 L851.851 316.169 L856.38 322.299 L861.382 328.051 L866.825 333.387 L872.675 338.273 L878.895 342.68 L885.445 346.578 L892.284 349.944 L899.369 352.755 L906.654 354.995 L914.095 356.649 L921.644 357.707 L929.253 358.161 L936.873 358.01 L944.458 357.253 L951.959 355.896 L959.328 353.948 L966.519 351.42 L973.486 348.329 L980.186 344.694 L986.576 340.539 L992.616 335.888 L998.267 330.773 L1003.49 325.225 L1008.26 319.279 L1012.54 312.973 L1016.31 306.347 L1019.54 299.442 L1022.21 292.303 L1024.31 284.974 L1025.81 277.502 L1026.72 269.934 L1027.02 262.317 L1027.02 262.317  Z" fill="#ed5d92" fill-rule="evenodd" fill-opacity="1"/>
<polyline clip-path="url(#clip172)" style="stroke:#000000; stroke-linecap:round; stroke-linejoin:round; stroke-width:4; stroke-opacity:0; fill:none" points="1027.02,262.317 1026.72,254.701 1025.81,247.133 1024.31,239.661 1022.21,232.332 1019.54,225.192 1016.31,218.288 1012.54,211.661 1008.26,205.355 1003.49,199.41 998.267,193.861 992.616,188.746 986.576,184.096 980.186,179.94 973.486,176.305 966.519,173.214 959.328,170.687 951.959,168.738 944.458,167.381 936.873,166.625 929.253,166.473 921.644,166.928 914.095,167.985 906.654,169.639 899.369,171.879 892.284,174.691 885.445,178.056 878.895,181.955 872.675,186.361 866.825,191.248 861.382,196.584 856.38,202.335 851.851,208.466 847.823,214.937 844.322,221.708 841.37,228.735 838.986,235.975 837.185,243.382 835.977,250.908 835.372,258.506 835.372,266.128 835.977,273.727 837.185,281.253 838.986,288.659 841.37,295.899 844.322,302.927 847.823,309.697 851.851,316.169 856.38,322.299 861.382,328.051 866.825,333.387 872.675,338.273 878.895,342.68 885.445,346.578 892.284,349.944 899.369,352.755 906.654,354.995 914.095,356.649 921.644,357.707 929.253,358.161 936.873,358.01 944.458,357.253 951.959,355.896 959.328,353.948 966.519,351.42 973.486,348.329 980.186,344.694 986.576,340.539 992.616,335.888 998.267,330.773 1003.49,325.225 1008.26,319.279 1012.54,312.973 1016.31,306.347 1019.54,299.442 1022.21,292.303 1024.31,284.974 1025.81,277.502 1026.72,269.934 1027.02,262.317 "/>
<path clip-path="url(#clip172)" d="M758.18 800 L757.877 792.384 L756.97 784.816 L755.464 777.343 L753.37 770.014 L750.699 762.875 L747.47 755.97 L743.703 749.344 L739.421 743.038 L734.652 737.092 L729.425 731.544 L723.774 726.429 L717.735 721.779 L711.345 717.623 L704.645 713.988 L697.678 710.897 L690.487 708.369 L683.117 706.421 L675.617 705.064 L668.032 704.308 L660.411 704.156 L652.802 704.611 L645.254 705.668 L637.813 707.322 L630.527 709.562 L623.442 712.373 L616.603 715.739 L610.053 719.637 L603.834 724.044 L597.984 728.93 L592.541 734.266 L587.539 740.018 L583.01 746.149 L578.982 752.62 L575.481 759.391 L572.529 766.418 L570.145 773.658 L568.343 781.064 L567.136 788.591 L566.53 796.189 L566.53 803.811 L567.136 811.409 L568.343 818.936 L570.145 826.342 L572.529 833.582 L575.481 840.609 L578.982 847.38 L583.01 853.851 L587.539 859.982 L592.541 865.734 L597.984 871.07 L603.834 875.956 L610.053 880.363 L616.603 884.261 L623.442 887.627 L630.527 890.438 L637.813 892.678 L645.254 894.332 L652.802 895.389 L660.411 895.844 L668.032 895.692 L675.617 894.936 L683.117 893.579 L690.487 891.631 L697.678 889.103 L704.645 886.012 L711.345 882.377 L717.735 878.221 L723.774 873.571 L729.425 868.456 L734.652 862.908 L739.421 856.962 L743.703 850.656 L747.47 844.03 L750.699 837.125 L753.37 829.986 L755.464 822.657 L756.97 815.184 L757.877 807.616 L758.18 800 L758.18 800  Z" fill="#ed5d92" fill-rule="evenodd" fill-opacity="1"/>
<polyline clip-path="url(#clip172)" style="stroke:#000000; stroke-linecap:round; stroke-linejoin:round; stroke-width:4; stroke-opacity:0; fill:none" points="758.18,800 757.877,792.384 756.97,784.816 755.464,777.343 753.37,770.014 750.699,762.875 747.47,755.97 743.703,749.344 739.421,743.038 734.652,737.092 729.425,731.544 723.774,726.429 717.735,721.779 711.345,717.623 704.645,713.988 697.678,710.897 690.487,708.369 683.117,706.421 675.617,705.064 668.032,704.308 660.411,704.156 652.802,704.611 645.254,705.668 637.813,707.322 630.527,709.562 623.442,712.373 616.603,715.739 610.053,719.637 603.834,724.044 597.984,728.93 592.541,734.266 587.539,740.018 583.01,746.149 578.982,752.62 575.481,759.391 572.529,766.418 570.145,773.658 568.343,781.064 567.136,788.591 566.53,796.189 566.53,803.811 567.136,811.409 568.343,818.936 570.145,826.342 572.529,833.582 575.481,840.609 578.982,847.38 583.01,853.851 587.539,859.982 592.541,865.734 597.984,871.07 603.834,875.956 610.053,880.363 616.603,884.261 623.442,887.627 630.527,890.438 637.813,892.678 645.254,894.332 652.802,895.389 660.411,895.844 668.032,895.692 675.617,894.936 683.117,893.579 690.487,891.631 697.678,889.103 704.645,886.012 711.345,882.377 717.735,878.221 723.774,873.571 729.425,868.456 734.652,862.908 739.421,856.962 743.703,850.656 747.47,844.03 750.699,837.125 753.37,829.986 755.464,822.657 756.97,815.184 757.877,807.616 758.18,800 "/>
<path clip-path="url(#clip172)" d="M1027.02 1337.68 L1026.72 1330.07 L1025.81 1322.5 L1024.31 1315.03 L1022.21 1307.7 L1019.54 1300.56 L1016.31 1293.65 L1012.54 1287.03 L1008.26 1280.72 L1003.49 1274.78 L998.267 1269.23 L992.616 1264.11 L986.576 1259.46 L980.186 1255.31 L973.486 1251.67 L966.519 1248.58 L959.328 1246.05 L951.959 1244.1 L944.458 1242.75 L936.873 1241.99 L929.253 1241.84 L921.644 1242.29 L914.095 1243.35 L906.654 1245 L899.369 1247.24 L892.284 1250.06 L885.445 1253.42 L878.895 1257.32 L872.675 1261.73 L866.825 1266.61 L861.382 1271.95 L856.38 1277.7 L851.851 1283.83 L847.823 1290.3 L844.322 1297.07 L841.37 1304.1 L838.986 1311.34 L837.185 1318.75 L835.977 1326.27 L835.372 1333.87 L835.372 1341.49 L835.977 1349.09 L837.185 1356.62 L838.986 1364.02 L841.37 1371.26 L844.322 1378.29 L847.823 1385.06 L851.851 1391.53 L856.38 1397.66 L861.382 1403.42 L866.825 1408.75 L872.675 1413.64 L878.895 1418.05 L885.445 1421.94 L892.284 1425.31 L899.369 1428.12 L906.654 1430.36 L914.095 1432.01 L921.644 1433.07 L929.253 1433.53 L936.873 1433.38 L944.458 1432.62 L951.959 1431.26 L959.328 1429.31 L966.519 1426.79 L973.486 1423.69 L980.186 1420.06 L986.576 1415.9 L992.616 1411.25 L998.267 1406.14 L1003.49 1400.59 L1008.26 1394.64 L1012.54 1388.34 L1016.31 1381.71 L1019.54 1374.81 L1022.21 1367.67 L1024.31 1360.34 L1025.81 1352.87 L1026.72 1345.3 L1027.02 1337.68 L1027.02 1337.68  Z" fill="#ed5d92" fill-rule="evenodd" fill-opacity="1"/>
<polyline clip-path="url(#clip172)" style="stroke:#000000; stroke-linecap:round; stroke-linejoin:round; stroke-width:4; stroke-opacity:0; fill:none" points="1027.02,1337.68 1026.72,1330.07 1025.81,1322.5 1024.31,1315.03 1022.21,1307.7 1019.54,1300.56 1016.31,1293.65 1012.54,1287.03 1008.26,1280.72 1003.49,1274.78 998.267,1269.23 992.616,1264.11 986.576,1259.46 980.186,1255.31 973.486,1251.67 966.519,1248.58 959.328,1246.05 951.959,1244.1 944.458,1242.75 936.873,1241.99 929.253,1241.84 921.644,1242.29 914.095,1243.35 906.654,1245 899.369,1247.24 892.284,1250.06 885.445,1253.42 878.895,1257.32 872.675,1261.73 866.825,1266.61 861.382,1271.95 856.38,1277.7 851.851,1283.83 847.823,1290.3 844.322,1297.07 841.37,1304.1 838.986,1311.34 837.185,1318.75 835.977,1326.27 835.372,1333.87 835.372,1341.49 835.977,1349.09 837.185,1356.62 838.986,1364.02 841.37,1371.26 844.322,1378.29 847.823,1385.06 851.851,1391.53 856.38,1397.66 861.382,1403.42 866.825,1408.75 872.675,1413.64 878.895,1418.05 885.445,1421.94 892.284,1425.31 899.369,1428.12 906.654,1430.36 914.095,1432.01 921.644,1433.07 929.253,1433.53 936.873,1433.38 944.458,1432.62 951.959,1431.26 959.328,1429.31 966.519,1426.79 973.486,1423.69 980.186,1420.06 986.576,1415.9 992.616,1411.25 998.267,1406.14 1003.49,1400.59 1008.26,1394.64 1012.54,1388.34 1016.31,1381.71 1019.54,1374.81 1022.21,1367.67 1024.31,1360.34 1025.81,1352.87 1026.72,1345.3 1027.02,1337.68 "/>
<path clip-path="url(#clip172)" d="M1564.7 1337.68 L1564.4 1330.07 L1563.49 1322.5 L1561.99 1315.03 L1559.89 1307.7 L1557.22 1300.56 L1553.99 1293.65 L1550.23 1287.03 L1545.95 1280.72 L1541.18 1274.78 L1535.95 1269.23 L1530.3 1264.11 L1524.26 1259.46 L1517.87 1255.31 L1511.17 1251.67 L1504.2 1248.58 L1497.01 1246.05 L1489.64 1244.1 L1482.14 1242.75 L1474.56 1241.99 L1466.94 1241.84 L1459.33 1242.29 L1451.78 1243.35 L1444.34 1245 L1437.05 1247.24 L1429.97 1250.06 L1423.13 1253.42 L1416.58 1257.32 L1410.36 1261.73 L1404.51 1266.61 L1399.06 1271.95 L1394.06 1277.7 L1389.53 1283.83 L1385.51 1290.3 L1382.01 1297.07 L1379.05 1304.1 L1376.67 1311.34 L1374.87 1318.75 L1373.66 1326.27 L1373.05 1333.87 L1373.05 1341.49 L1373.66 1349.09 L1374.87 1356.62 L1376.67 1364.02 L1379.05 1371.26 L1382.01 1378.29 L1385.51 1385.06 L1389.53 1391.53 L1394.06 1397.66 L1399.06 1403.42 L1404.51 1408.75 L1410.36 1413.64 L1416.58 1418.05 L1423.13 1421.94 L1429.97 1425.31 L1437.05 1428.12 L1444.34 1430.36 L1451.78 1432.01 L1459.33 1433.07 L1466.94 1433.53 L1474.56 1433.38 L1482.14 1432.62 L1489.64 1431.26 L1497.01 1429.31 L1504.2 1426.79 L1511.17 1423.69 L1517.87 1420.06 L1524.26 1415.9 L1530.3 1411.25 L1535.95 1406.14 L1541.18 1400.59 L1545.95 1394.64 L1550.23 1388.34 L1553.99 1381.71 L1557.22 1374.81 L1559.89 1367.67 L1561.99 1360.34 L1563.49 1352.87 L1564.4 1345.3 L1564.7 1337.68 L1564.7 1337.68  Z" fill="#ed5d92" fill-rule="evenodd" fill-opacity="1"/>
<polyline clip-path="url(#clip172)" style="stroke:#000000; stroke-linecap:round; stroke-linejoin:round; stroke-width:4; stroke-opacity:0; fill:none" points="1564.7,1337.68 1564.4,1330.07 1563.49,1322.5 1561.99,1315.03 1559.89,1307.7 1557.22,1300.56 1553.99,1293.65 1550.23,1287.03 1545.95,1280.72 1541.18,1274.78 1535.95,1269.23 1530.3,1264.11 1524.26,1259.46 1517.87,1255.31 1511.17,1251.67 1504.2,1248.58 1497.01,1246.05 1489.64,1244.1 1482.14,1242.75 1474.56,1241.99 1466.94,1241.84 1459.33,1242.29 1451.78,1243.35 1444.34,1245 1437.05,1247.24 1429.97,1250.06 1423.13,1253.42 1416.58,1257.32 1410.36,1261.73 1404.51,1266.61 1399.06,1271.95 1394.06,1277.7 1389.53,1283.83 1385.51,1290.3 1382.01,1297.07 1379.05,1304.1 1376.67,1311.34 1374.87,1318.75 1373.66,1326.27 1373.05,1333.87 1373.05,1341.49 1373.66,1349.09 1374.87,1356.62 1376.67,1364.02 1379.05,1371.26 1382.01,1378.29 1385.51,1385.06 1389.53,1391.53 1394.06,1397.66 1399.06,1403.42 1404.51,1408.75 1410.36,1413.64 1416.58,1418.05 1423.13,1421.94 1429.97,1425.31 1437.05,1428.12 1444.34,1430.36 1451.78,1432.01 1459.33,1433.07 1466.94,1433.53 1474.56,1433.38 1482.14,1432.62 1489.64,1431.26 1497.01,1429.31 1504.2,1426.79 1511.17,1423.69 1517.87,1420.06 1524.26,1415.9 1530.3,1411.25 1535.95,1406.14 1541.18,1400.59 1545.95,1394.64 1550.23,1388.34 1553.99,1381.71 1557.22,1374.81 1559.89,1367.67 1561.99,1360.34 1563.49,1352.87 1564.4,1345.3 1564.7,1337.68 "/>
<circle clip-path="url(#clip172)" cx="1737.68" cy="800" r="0.72" fill="#ed5d92" fill-rule="evenodd" fill-opacity="1" stroke="#000000" stroke-opacity="1" stroke-width="3.2"/>
<circle clip-path="url(#clip172)" cx="1468.84" cy="262.317" r="0.72" fill="#ed5d92" fill-rule="evenodd" fill-opacity="1" stroke="#000000" stroke-opacity="1" stroke-width="3.2"/>
<circle clip-path="url(#clip172)" cx="931.159" cy="262.317" r="0.72" fill="#ed5d92" fill-rule="evenodd" fill-opacity="1" stroke="#000000" stroke-opacity="1" stroke-width="3.2"/>
<circle clip-path="url(#clip172)" cx="662.317" cy="800" r="0.72" fill="#ed5d92" fill-rule="evenodd" fill-opacity="1" stroke="#000000" stroke-opacity="1" stroke-width="3.2"/>
<circle clip-path="url(#clip172)" cx="931.159" cy="1337.68" r="0.72" fill="#ed5d92" fill-rule="evenodd" fill-opacity="1" stroke="#000000" stroke-opacity="1" stroke-width="3.2"/>
<circle clip-path="url(#clip172)" cx="1468.84" cy="1337.68" r="0.72" fill="#ed5d92" fill-rule="evenodd" fill-opacity="1" stroke="#000000" stroke-opacity="1" stroke-width="3.2"/>
<path clip-path="url(#clip170)" d="M1723.22 785.799 Q1719.6 785.799 1717.78 789.363 Q1715.97 792.905 1715.97 800.035 Q1715.97 807.141 1717.78 810.706 Q1719.6 814.248 1723.22 814.248 Q1726.85 814.248 1728.66 810.706 Q1730.48 807.141 1730.48 800.035 Q1730.48 792.905 1728.66 789.363 Q1726.85 785.799 1723.22 785.799 M1723.22 782.095 Q1729.03 782.095 1732.08 786.701 Q1735.16 791.285 1735.16 800.035 Q1735.16 808.762 1732.08 813.368 Q1729.03 817.951 1723.22 817.951 Q1717.41 817.951 1714.33 813.368 Q1711.27 808.762 1711.27 800.035 Q1711.27 791.285 1714.33 786.701 Q1717.41 782.095 1723.22 782.095 Z" fill="#000000" fill-rule="evenodd" fill-opacity="1" /><path clip-path="url(#clip170)" d="M1744.19 813.345 L1751.83 813.345 L1751.83 786.979 L1743.52 788.646 L1743.52 784.387 L1751.78 782.72 L1756.46 782.72 L1756.46 813.345 L1764.09 813.345 L1764.09 817.28 L1744.19 817.28 L1744.19 813.345 Z" fill="#000000" fill-rule="evenodd" fill-opacity="1" /><path clip-path="url(#clip170)" d="M1454.56 248.116 Q1450.95 248.116 1449.12 251.681 Q1447.31 255.222 1447.31 262.352 Q1447.31 269.458 1449.12 273.023 Q1450.95 276.565 1454.56 276.565 Q1458.19 276.565 1460 273.023 Q1461.83 269.458 1461.83 262.352 Q1461.83 255.222 1460 251.681 Q1458.19 248.116 1454.56 248.116 M1454.56 244.412 Q1460.37 244.412 1463.42 249.019 Q1466.5 253.602 1466.5 262.352 Q1466.5 271.079 1463.42 275.685 Q1460.37 280.269 1454.56 280.269 Q1448.75 280.269 1445.67 275.685 Q1442.61 271.079 1442.61 262.352 Q1442.61 253.602 1445.67 249.019 Q1448.75 244.412 1454.56 244.412 Z" fill="#000000" fill-rule="evenodd" fill-opacity="1" /><path clip-path="url(#clip170)" d="M1478.75 275.662 L1495.07 275.662 L1495.07 279.597 L1473.12 279.597 L1473.12 275.662 Q1475.79 272.907 1480.37 268.278 Q1484.98 263.625 1486.16 262.282 Q1488.4 259.759 1489.28 258.023 Q1490.18 256.264 1490.18 254.574 Q1490.18 251.82 1488.24 250.083 Q1486.32 248.347 1483.22 248.347 Q1481.02 248.347 1478.56 249.111 Q1476.13 249.875 1473.36 251.426 L1473.36 246.704 Q1476.18 245.57 1478.63 244.991 Q1481.09 244.412 1483.12 244.412 Q1488.49 244.412 1491.69 247.097 Q1494.88 249.783 1494.88 254.273 Q1494.88 256.403 1494.07 258.324 Q1493.29 260.222 1491.18 262.815 Q1490.6 263.486 1487.5 266.704 Q1484.4 269.898 1478.75 275.662 Z" fill="#000000" fill-rule="evenodd" fill-opacity="1" /><path clip-path="url(#clip170)" d="M916.402 248.116 Q912.791 248.116 910.962 251.681 Q909.156 255.222 909.156 262.352 Q909.156 269.458 910.962 273.023 Q912.791 276.565 916.402 276.565 Q920.036 276.565 921.842 273.023 Q923.67 269.458 923.67 262.352 Q923.67 255.222 921.842 251.681 Q920.036 248.116 916.402 248.116 M916.402 244.412 Q922.212 244.412 925.267 249.019 Q928.346 253.602 928.346 262.352 Q928.346 271.079 925.267 275.685 Q922.212 280.269 916.402 280.269 Q910.592 280.269 907.513 275.685 Q904.457 271.079 904.457 262.352 Q904.457 253.602 907.513 249.019 Q910.592 244.412 916.402 244.412 Z" fill="#000000" fill-rule="evenodd" fill-opacity="1" /><path clip-path="url(#clip170)" d="M950.73 260.963 Q954.087 261.681 955.962 263.949 Q957.86 266.218 957.86 269.551 Q957.86 274.667 954.341 277.468 Q950.823 280.269 944.341 280.269 Q942.165 280.269 939.851 279.829 Q937.559 279.412 935.105 278.556 L935.105 274.042 Q937.05 275.176 939.365 275.755 Q941.679 276.333 944.203 276.333 Q948.601 276.333 950.892 274.597 Q953.207 272.861 953.207 269.551 Q953.207 266.495 951.054 264.782 Q948.925 263.046 945.105 263.046 L941.078 263.046 L941.078 259.204 L945.29 259.204 Q948.74 259.204 950.568 257.838 Q952.397 256.449 952.397 253.857 Q952.397 251.195 950.499 249.783 Q948.624 248.347 945.105 248.347 Q943.184 248.347 940.985 248.764 Q938.786 249.181 936.147 250.06 L936.147 245.894 Q938.809 245.153 941.124 244.783 Q943.462 244.412 945.522 244.412 Q950.846 244.412 953.948 246.843 Q957.05 249.25 957.05 253.37 Q957.05 256.241 955.406 258.232 Q953.763 260.199 950.73 260.963 Z" fill="#000000" fill-rule="evenodd" fill-opacity="1" /><path clip-path="url(#clip170)" d="M646.993 785.799 Q643.382 785.799 641.553 789.363 Q639.748 792.905 639.748 800.035 Q639.748 807.141 641.553 810.706 Q643.382 814.248 646.993 814.248 Q650.627 814.248 652.433 810.706 Q654.262 807.141 654.262 800.035 Q654.262 792.905 652.433 789.363 Q650.627 785.799 646.993 785.799 M646.993 782.095 Q652.803 782.095 655.859 786.701 Q658.938 791.285 658.938 800.035 Q658.938 808.762 655.859 813.368 Q652.803 817.951 646.993 817.951 Q641.183 817.951 638.104 813.368 Q635.049 808.762 635.049 800.035 Q635.049 791.285 638.104 786.701 Q641.183 782.095 646.993 782.095 Z" fill="#000000" fill-rule="evenodd" fill-opacity="1" /><path clip-path="url(#clip170)" d="M680.002 786.794 L668.197 805.243 L680.002 805.243 L680.002 786.794 M678.775 782.72 L684.655 782.72 L684.655 805.243 L689.586 805.243 L689.586 809.132 L684.655 809.132 L684.655 817.28 L680.002 817.28 L680.002 809.132 L664.401 809.132 L664.401 804.618 L678.775 782.72 Z" fill="#000000" fill-rule="evenodd" fill-opacity="1" /><path clip-path="url(#clip170)" d="M916.575 1323.48 Q912.964 1323.48 911.136 1327.05 Q909.33 1330.59 909.33 1337.72 Q909.33 1344.82 911.136 1348.39 Q912.964 1351.93 916.575 1351.93 Q920.21 1351.93 922.015 1348.39 Q923.844 1344.82 923.844 1337.72 Q923.844 1330.59 922.015 1327.05 Q920.21 1323.48 916.575 1323.48 M916.575 1319.78 Q922.386 1319.78 925.441 1324.38 Q928.52 1328.97 928.52 1337.72 Q928.52 1346.44 925.441 1351.05 Q922.386 1355.63 916.575 1355.63 Q910.765 1355.63 907.687 1351.05 Q904.631 1346.44 904.631 1337.72 Q904.631 1328.97 907.687 1324.38 Q910.765 1319.78 916.575 1319.78 Z" fill="#000000" fill-rule="evenodd" fill-opacity="1" /><path clip-path="url(#clip170)" d="M936.784 1320.4 L955.14 1320.4 L955.14 1324.34 L941.066 1324.34 L941.066 1332.81 Q942.084 1332.46 943.103 1332.3 Q944.121 1332.12 945.14 1332.12 Q950.927 1332.12 954.307 1335.29 Q957.686 1338.46 957.686 1343.87 Q957.686 1349.45 954.214 1352.56 Q950.742 1355.63 944.422 1355.63 Q942.247 1355.63 939.978 1355.26 Q937.733 1354.89 935.325 1354.15 L935.325 1349.45 Q937.409 1350.59 939.631 1351.14 Q941.853 1351.7 944.33 1351.7 Q948.334 1351.7 950.672 1349.59 Q953.01 1347.49 953.01 1343.87 Q953.01 1340.26 950.672 1338.16 Q948.334 1336.05 944.33 1336.05 Q942.455 1336.05 940.58 1336.47 Q938.728 1336.88 936.784 1337.76 L936.784 1320.4 Z" fill="#000000" fill-rule="evenodd" fill-opacity="1" /><path clip-path="url(#clip170)" d="M1453.68 1323.48 Q1450.07 1323.48 1448.24 1327.05 Q1446.43 1330.59 1446.43 1337.72 Q1446.43 1344.82 1448.24 1348.39 Q1450.07 1351.93 1453.68 1351.93 Q1457.31 1351.93 1459.12 1348.39 Q1460.95 1344.82 1460.95 1337.72 Q1460.95 1330.59 1459.12 1327.05 Q1457.31 1323.48 1453.68 1323.48 M1453.68 1319.78 Q1459.49 1319.78 1462.55 1324.38 Q1465.62 1328.97 1465.62 1337.72 Q1465.62 1346.44 1462.55 1351.05 Q1459.49 1355.63 1453.68 1355.63 Q1447.87 1355.63 1444.79 1351.05 Q1441.74 1346.44 1441.74 1337.72 Q1441.74 1328.97 1444.79 1324.38 Q1447.87 1319.78 1453.68 1319.78 Z" fill="#000000" fill-rule="evenodd" fill-opacity="1" /><path clip-path="url(#clip170)" d="M1484.42 1335.82 Q1481.27 1335.82 1479.42 1337.97 Q1477.59 1340.12 1477.59 1343.87 Q1477.59 1347.6 1479.42 1349.78 Q1481.27 1351.93 1484.42 1351.93 Q1487.57 1351.93 1489.4 1349.78 Q1491.25 1347.6 1491.25 1343.87 Q1491.25 1340.12 1489.4 1337.97 Q1487.57 1335.82 1484.42 1335.82 M1493.7 1321.17 L1493.7 1325.43 Q1491.94 1324.59 1490.14 1324.15 Q1488.36 1323.71 1486.6 1323.71 Q1481.97 1323.71 1479.51 1326.84 Q1477.08 1329.96 1476.73 1336.28 Q1478.1 1334.27 1480.16 1333.2 Q1482.22 1332.12 1484.7 1332.12 Q1489.91 1332.12 1492.92 1335.29 Q1495.95 1338.44 1495.95 1343.87 Q1495.95 1349.2 1492.8 1352.42 Q1489.65 1355.63 1484.42 1355.63 Q1478.42 1355.63 1475.25 1351.05 Q1472.08 1346.44 1472.08 1337.72 Q1472.08 1329.52 1475.97 1324.66 Q1479.86 1319.78 1486.41 1319.78 Q1488.17 1319.78 1489.95 1320.13 Q1491.76 1320.47 1493.7 1321.17 Z" fill="#000000" fill-rule="evenodd" fill-opacity="1" /></svg>
