<?xml version="1.0" encoding="utf-8"?>
<svg xmlns="http://www.w3.org/2000/svg" xmlns:xlink="http://www.w3.org/1999/xlink" width="600" height="400" viewBox="0 0 2400 1600">
<defs>
  <clipPath id="clip180">
    <rect x="0" y="0" width="2400" height="1600"/>
  </clipPath>
</defs>
<path clip-path="url(#clip180)" d="M0 1600 L2400 1600 L2400 0 L0 0  Z" fill="#ffffff" fill-rule="evenodd" fill-opacity="1"/>
<defs>
  <clipPath id="clip181">
    <rect x="480" y="0" width="1681" height="1600"/>
  </clipPath>
</defs>
<path clip-path="url(#clip180)" d="M447.244 1552.76 L1952.76 1552.76 L1952.76 47.2441 L447.244 47.2441  Z" fill="#ffffff" fill-rule="evenodd" fill-opacity="1"/>
<defs>
  <clipPath id="clip182">
    <rect x="447" y="47" width="1507" height="1507"/>
  </clipPath>
</defs>
<polyline clip-path="url(#clip182)" style="stroke:#008b8b; stroke-linecap:round; stroke-linejoin:round; stroke-width:2.95575e-05; stroke-opacity:0.9; fill:none" points="1737.68,800 1524.69,368.812 "/>
<polyline clip-path="url(#clip182)" style="stroke:#008b8b; stroke-linecap:round; stroke-linejoin:round; stroke-width:9.22014e-07; stroke-opacity:0.9; fill:none" points="1737.68,800 1046.11,262.317 "/>
<polyline clip-path="url(#clip182)" style="stroke:#008b8b; stroke-linecap:round; stroke-linejoin:round; stroke-width:1.57569e-06; stroke-opacity:0.9; fill:none" points="1737.68,800 662.317,560.709 "/>
<polyline clip-path="url(#clip182)" style="stroke:#008b8b; stroke-linecap:round; stroke-linejoin:round; stroke-width:2.28582e-06; stroke-opacity:0.9; fill:none" points="1737.68,800 662.317,1039.29 "/>
<polyline clip-path="url(#clip182)" style="stroke:#008b8b; stroke-linecap:round; stroke-linejoin:round; stroke-width:4.2085e-06; stroke-opacity:0.9; fill:none" points="1737.68,800 1046.11,1337.68 "/>
<polyline clip-path="url(#clip182)" style="stroke:#008b8b; stroke-linecap:round; stroke-linejoin:round; stroke-width:2.80353e-06; stroke-opacity:0.9; fill:none" points="1737.68,800 1524.69,1231.19 "/>
<polyline clip-path="url(#clip182)" style="stroke:#008b8b; stroke-linecap:round; stroke-linejoin:round; stroke-width:0.00502813; stroke-opacity:0.9; fill:none" points="1524.69,368.812 1046.11,262.317 "/>
<polyline clip-path="url(#clip182)" style="stroke:#008b8b; stroke-linecap:round; stroke-linejoin:round; stroke-width:0.014734; stroke-opacity:0.9; fill:none" points="1524.69,368.812 662.317,560.709 "/>
<polyline clip-path="url(#clip182)" style="stroke:#008b8b; stroke-linecap:round; stroke-linejoin:round; stroke-width:0.00887855; stroke-opacity:0.9; fill:none" points="1524.69,368.812 662.317,1039.29 "/>
<polyline clip-path="url(#clip182)" style="stroke:#008b8b; stroke-linecap:round; stroke-linejoin:round; stroke-width:0.0669756; stroke-opacity:0.9; fill:none" points="1524.69,368.812 1046.11,1337.68 "/>
<polyline clip-path="url(#clip182)" style="stroke:#008b8b; stroke-linecap:round; stroke-linejoin:round; stroke-width:0.0119565; stroke-opacity:0.9; fill:none" points="1524.69,368.812 1524.69,1231.19 "/>
<polyline clip-path="url(#clip182)" style="stroke:#008b8b; stroke-linecap:round; stroke-linejoin:round; stroke-width:53.2657; stroke-opacity:0.9; fill:none" points="1046.11,262.317 662.317,560.709 "/>
<polyline clip-path="url(#clip182)" style="stroke:#008b8b; stroke-linecap:round; stroke-linejoin:round; stroke-width:13.1808; stroke-opacity:0.9; fill:none" points="1046.11,262.317 662.317,1039.29 "/>
<polyline clip-path="url(#clip182)" style="stroke:#008b8b; stroke-linecap:round; stroke-linejoin:round; stroke-width:15.0873; stroke-opacity:0.9; fill:none" points="1046.11,262.317 1046.11,1337.68 "/>
<polyline clip-path="url(#clip182)" style="stroke:#008b8b; stroke-linecap:round; stroke-linejoin:round; stroke-width:14.2968; stroke-opacity:0.9; fill:none" points="1046.11,262.317 1524.69,1231.19 "/>
<polyline clip-path="url(#clip182)" style="stroke:#008b8b; stroke-linecap:round; stroke-linejoin:round; stroke-width:14.0995; stroke-opacity:0.9; fill:none" points="662.317,560.709 662.317,1039.29 "/>
<polyline clip-path="url(#clip182)" style="stroke:#008b8b; stroke-linecap:round; stroke-linejoin:round; stroke-width:16.6324; stroke-opacity:0.9; fill:none" points="662.317,560.709 1046.11,1337.68 "/>
<polyline clip-path="url(#clip182)" style="stroke:#008b8b; stroke-linecap:round; stroke-linejoin:round; stroke-width:15.1018; stroke-opacity:0.9; fill:none" points="662.317,560.709 1524.69,1231.19 "/>
<polyline clip-path="url(#clip182)" style="stroke:#008b8b; stroke-linecap:round; stroke-linejoin:round; stroke-width:32.3548; stroke-opacity:0.9; fill:none" points="662.317,1039.29 1046.11,1337.68 "/>
<polyline clip-path="url(#clip182)" style="stroke:#008b8b; stroke-linecap:round; stroke-linejoin:round; stroke-width:41.0543; stroke-opacity:0.9; fill:none" points="662.317,1039.29 1524.69,1231.19 "/>
<polyline clip-path="url(#clip182)" style="stroke:#008b8b; stroke-linecap:round; stroke-linejoin:round; stroke-width:26.5438; stroke-opacity:0.9; fill:none" points="1046.11,1337.68 1524.69,1231.19 "/>
<path clip-path="url(#clip182)" d="M1824.99 800 L1824.71 793.064 L1823.88 786.171 L1822.51 779.366 L1820.61 772.692 L1818.17 766.19 L1815.23 759.902 L1811.8 753.867 L1807.9 748.124 L1803.56 742.709 L1798.8 737.656 L1793.65 732.998 L1788.15 728.763 L1782.33 724.978 L1776.23 721.668 L1769.89 718.853 L1763.34 716.551 L1756.63 714.776 L1749.79 713.541 L1742.89 712.852 L1735.95 712.714 L1729.02 713.127 L1722.14 714.091 L1715.37 715.597 L1708.73 717.637 L1702.28 720.197 L1696.05 723.262 L1690.09 726.813 L1684.42 730.826 L1679.09 735.276 L1674.14 740.135 L1669.58 745.373 L1665.46 750.957 L1661.79 756.85 L1658.6 763.017 L1655.91 769.417 L1653.74 776.01 L1652.1 782.755 L1651 789.609 L1650.45 796.529 L1650.45 803.471 L1651 810.391 L1652.1 817.245 L1653.74 823.99 L1655.91 830.583 L1658.6 836.983 L1661.79 843.15 L1665.46 849.043 L1669.58 854.627 L1674.14 859.865 L1679.09 864.724 L1684.42 869.174 L1690.09 873.187 L1696.05 876.738 L1702.28 879.803 L1708.73 882.363 L1715.37 884.403 L1722.14 885.909 L1729.02 886.873 L1735.95 887.286 L1742.89 887.148 L1749.79 886.459 L1756.63 885.224 L1763.34 883.449 L1769.89 881.147 L1776.23 878.332 L1782.33 875.022 L1788.15 871.237 L1793.65 867.002 L1798.8 862.344 L1803.56 857.291 L1807.9 851.876 L1811.8 846.133 L1815.23 840.098 L1818.17 833.81 L1820.61 827.308 L1822.51 820.634 L1823.88 813.829 L1824.71 806.936 L1824.99 800 L1824.99 800  Z" fill="#ed5d92" fill-rule="evenodd" fill-opacity="1"/>
<polyline clip-path="url(#clip182)" style="stroke:#000000; stroke-linecap:round; stroke-linejoin:round; stroke-width:4; stroke-opacity:0; fill:none" points="1824.99,800 1824.71,793.064 1823.88,786.171 1822.51,779.366 1820.61,772.692 1818.17,766.19 1815.23,759.902 1811.8,753.867 1807.9,748.124 1803.56,742.709 1798.8,737.656 1793.65,732.998 1788.15,728.763 1782.33,724.978 1776.23,721.668 1769.89,718.853 1763.34,716.551 1756.63,714.776 1749.79,713.541 1742.89,712.852 1735.95,712.714 1729.02,713.127 1722.14,714.091 1715.37,715.597 1708.73,717.637 1702.28,720.197 1696.05,723.262 1690.09,726.813 1684.42,730.826 1679.09,735.276 1674.14,740.135 1669.58,745.373 1665.46,750.957 1661.79,756.85 1658.6,763.017 1655.91,769.417 1653.74,776.01 1652.1,782.755 1651,789.609 1650.45,796.529 1650.45,803.471 1651,810.391 1652.1,817.245 1653.74,823.99 1655.91,830.583 1658.6,836.983 1661.79,843.15 1665.46,849.043 1669.58,854.627 1674.14,859.865 1679.09,864.724 1684.42,869.174 1690.09,873.187 1696.05,876.738 1702.28,879.803 1708.73,882.363 1715.37,884.403 1722.14,885.909 1729.02,886.873 1735.95,887.286 1742.89,887.148 1749.79,886.459 1756.63,885.224 1763.34,883.449 1769.89,881.147 1776.23,878.332 1782.33,875.022 1788.15,871.237 1793.65,867.002 1798.8,862.344 1803.56,857.291 1807.9,851.876 1811.8,846.133 1815.23,840.098 1818.17,833.81 1820.61,827.308 1822.51,820.634 1823.88,813.829 1824.71,806.936 1824.99,800 "/>
<path clip-path="url(#clip182)" d="M1612 368.812 L1611.72 361.876 L1610.89 354.983 L1609.52 348.178 L1607.62 341.504 L1605.18 335.002 L1602.24 328.714 L1598.81 322.679 L1594.91 316.936 L1590.57 311.521 L1585.81 306.468 L1580.66 301.81 L1575.16 297.575 L1569.34 293.79 L1563.24 290.48 L1556.9 287.665 L1550.35 285.363 L1543.64 283.588 L1536.81 282.353 L1529.9 281.664 L1522.96 281.526 L1516.03 281.939 L1509.15 282.902 L1502.38 284.409 L1495.74 286.448 L1489.29 289.009 L1483.06 292.074 L1477.1 295.624 L1471.43 299.637 L1466.1 304.088 L1461.15 308.947 L1456.59 314.185 L1452.47 319.769 L1448.8 325.662 L1445.61 331.828 L1442.92 338.228 L1440.75 344.822 L1439.11 351.567 L1438.01 358.421 L1437.46 365.341 L1437.46 372.283 L1438.01 379.203 L1439.11 386.057 L1440.75 392.802 L1442.92 399.395 L1445.61 405.795 L1448.8 411.962 L1452.47 417.855 L1456.59 423.438 L1461.15 428.676 L1466.1 433.536 L1471.43 437.986 L1477.1 441.999 L1483.06 445.55 L1489.29 448.615 L1495.74 451.175 L1502.38 453.215 L1509.15 454.721 L1516.03 455.684 L1522.96 456.098 L1529.9 455.96 L1536.81 455.271 L1543.64 454.036 L1550.35 452.261 L1556.9 449.959 L1563.24 447.144 L1569.34 443.834 L1575.16 440.049 L1580.66 435.814 L1585.81 431.156 L1590.57 426.103 L1594.91 420.688 L1598.81 414.945 L1602.24 408.91 L1605.18 402.622 L1607.62 396.12 L1609.52 389.446 L1610.89 382.641 L1611.72 375.748 L1612 368.812 L1612 368.812  Z" fill="#ed5d92" fill-rule="evenodd" fill-opacity="1"/>
<polyline clip-path="url(#clip182)" style="stroke:#000000; stroke-linecap:round; stroke-linejoin:round; stroke-width:4; stroke-opacity:0; fill:none" points="1612,368.812 1611.72,361.876 1610.89,354.983 1609.52,348.178 1607.62,341.504 1605.18,335.002 1602.24,328.714 1598.81,322.679 1594.91,316.936 1590.57,311.521 1585.81,306.468 1580.66,301.81 1575.16,297.575 1569.34,293.79 1563.24,290.48 1556.9,287.665 1550.35,285.363 1543.64,283.588 1536.81,282.353 1529.9,281.664 1522.96,281.526 1516.03,281.939 1509.15,282.902 1502.38,284.409 1495.74,286.448 1489.29,289.009 1483.06,292.074 1477.1,295.624 1471.43,299.637 1466.1,304.088 1461.15,308.947 1456.59,314.185 1452.47,319.769 1448.8,325.662 1445.61,331.828 1442.92,338.228 1440.75,344.822 1439.11,351.567 1438.01,358.421 1437.46,365.341 1437.46,372.283 1438.01,379.203 1439.11,386.057 1440.75,392.802 1442.92,399.395 1445.61,405.795 1448.8,411.962 1452.47,417.855 1456.59,423.438 1461.15,428.676 1466.1,433.536 1471.43,437.986 1477.1,441.999 1483.06,445.55 1489.29,448.615 1495.74,451.175 1502.38,453.215 1509.15,454.721 1516.03,455.684 1522.96,456.098 1529.9,455.96 1536.81,455.271 1543.64,454.036 1550.35,452.261 1556.9,449.959 1563.24,447.144 1569.34,443.834 1575.16,440.049 1580.66,435.814 1585.81,431.156 1590.57,426.103 1594.91,420.688 1598.81,414.945 1602.24,408.91 1605.18,402.622 1607.62,396.12 1609.52,389.446 1610.89,382.641 1611.72,375.748 1612,368.812 "/>
<path clip-path="url(#clip182)" d="M1133.41 262.317 L1133.14 255.381 L1132.31 248.488 L1130.94 241.683 L1129.03 235.009 L1126.6 228.507 L1123.66 222.219 L1120.23 216.184 L1116.33 210.441 L1111.99 205.026 L1107.23 199.974 L1102.08 195.315 L1096.58 191.08 L1090.76 187.295 L1084.66 183.985 L1078.31 181.17 L1071.76 178.868 L1065.05 177.093 L1058.22 175.858 L1051.32 175.169 L1044.37 175.031 L1037.45 175.445 L1030.57 176.408 L1023.79 177.914 L1017.16 179.954 L1010.71 182.514 L1004.48 185.579 L998.513 189.13 L992.849 193.143 L987.521 197.593 L982.564 202.453 L978.009 207.691 L973.884 213.274 L970.216 219.167 L967.028 225.334 L964.339 231.734 L962.168 238.327 L960.527 245.072 L959.428 251.926 L958.876 258.846 L958.876 265.788 L959.428 272.708 L960.527 279.562 L962.168 286.307 L964.339 292.901 L967.028 299.301 L970.216 305.467 L973.884 311.36 L978.009 316.944 L982.564 322.182 L987.521 327.041 L992.849 331.492 L998.513 335.505 L1004.48 339.055 L1010.71 342.12 L1017.16 344.681 L1023.79 346.72 L1030.57 348.227 L1037.45 349.19 L1044.37 349.604 L1051.32 349.466 L1058.22 348.777 L1065.05 347.541 L1071.76 345.767 L1078.31 343.464 L1084.66 340.649 L1090.76 337.339 L1096.58 333.554 L1102.08 329.319 L1107.23 324.661 L1111.99 319.608 L1116.33 314.193 L1120.23 308.45 L1123.66 302.416 L1126.6 296.127 L1129.03 289.625 L1130.94 282.951 L1132.31 276.146 L1133.14 269.253 L1133.41 262.317 L1133.41 262.317  Z" fill="#ed5d92" fill-rule="evenodd" fill-opacity="1"/>
<polyline clip-path="url(#clip182)" style="stroke:#000000; stroke-linecap:round; stroke-linejoin:round; stroke-width:4; stroke-opacity:0; fill:none" points="1133.41,262.317 1133.14,255.381 1132.31,248.488 1130.94,241.683 1129.03,235.009 1126.6,228.507 1123.66,222.219 1120.23,216.184 1116.33,210.441 1111.99,205.026 1107.23,199.974 1102.08,195.315 1096.58,191.08 1090.76,187.295 1084.66,183.985 1078.31,181.17 1071.76,178.868 1065.05,177.093 1058.22,175.858 1051.32,175.169 1044.37,175.031 1037.45,175.445 1030.57,176.408 1023.79,177.914 1017.16,179.954 1010.71,182.514 1004.48,185.579 998.513,189.13 992.849,193.143 987.521,197.593 982.564,202.453 978.009,207.691 973.884,213.274 970.216,219.167 967.028,225.334 964.339,231.734 962.168,238.327 960.527,245.072 959.428,251.926 958.876,258.846 958.876,265.788 959.428,272.708 960.527,279.562 962.168,286.307 964.339,292.901 967.028,299.301 970.216,305.467 973.884,311.36 978.009,316.944 982.564,322.182 987.521,327.041 992.849,331.492 998.513,335.505 1004.48,339.055 1010.71,342.12 1017.16,344.681 1023.79,346.72 1030.57,348.227 1037.45,349.19 1044.37,349.604 1051.32,349.466 1058.22,348.777 1065.05,347.541 1071.76,345.767 1078.31,343.464 1084.66,340.649 1090.76,337.339 1096.58,333.554 1102.08,329.319 1107.23,324.661 1111.99,319.608 1116.33,314.193 1120.23,308.45 1123.66,302.416 1126.6,296.127 1129.03,289.625 1130.94,282.951 1132.31,276.146 1133.14,269.253 1133.41,262.317 "/>
<path clip-path="url(#clip182)" d="M749.621 560.709 L749.345 553.772 L748.519 546.88 L747.147 540.075 L745.24 533.4 L742.808 526.898 L739.867 520.61 L736.437 514.576 L732.537 508.833 L728.193 503.418 L723.433 498.365 L718.287 493.706 L712.787 489.471 L706.967 485.687 L700.866 482.376 L694.52 479.561 L687.971 477.259 L681.26 475.485 L674.429 474.249 L667.522 473.56 L660.581 473.422 L653.652 473.836 L646.777 474.799 L640.001 476.305 L633.366 478.345 L626.913 480.906 L620.685 483.971 L614.72 487.521 L609.055 491.534 L603.728 495.985 L598.771 500.844 L594.215 506.082 L590.091 511.665 L586.422 517.559 L583.234 523.725 L580.546 530.125 L578.374 536.719 L576.734 543.464 L575.634 550.318 L575.083 557.238 L575.083 564.18 L575.634 571.099 L576.734 577.954 L578.374 584.699 L580.546 591.292 L583.234 597.692 L586.422 603.858 L590.091 609.752 L594.215 615.335 L598.771 620.573 L603.728 625.433 L609.055 629.883 L614.72 633.896 L620.685 637.446 L626.913 640.511 L633.366 643.072 L640.001 645.112 L646.777 646.618 L653.652 647.581 L660.581 647.995 L667.522 647.857 L674.429 647.168 L681.26 645.932 L687.971 644.158 L694.52 641.856 L700.866 639.041 L706.967 635.731 L712.787 631.946 L718.287 627.711 L723.433 623.052 L728.193 618 L732.537 612.585 L736.437 606.842 L739.867 600.807 L742.808 594.519 L745.24 588.017 L747.147 581.342 L748.519 574.537 L749.345 567.645 L749.621 560.709 L749.621 560.709  Z" fill="#ed5d92" fill-rule="evenodd" fill-opacity="1"/>
<polyline clip-path="url(#clip182)" style="stroke:#000000; stroke-linecap:round; stroke-linejoin:round; stroke-width:4; stroke-opacity:0; fill:none" points="749.621,560.709 749.345,553.772 748.519,546.88 747.147,540.075 745.24,533.4 742.808,526.898 739.867,520.61 736.437,514.576 732.537,508.833 728.193,503.418 723.433,498.365 718.287,493.706 712.787,489.471 706.967,485.687 700.866,482.376 694.52,479.561 687.971,477.259 681.26,475.485 674.429,474.249 667.522,473.56 660.581,473.422 653.652,473.836 646.777,474.799 640.001,476.305 633.366,478.345 626.913,480.906 620.685,483.971 614.72,487.521 609.055,491.534 603.728,495.985 598.771,500.844 594.215,506.082 590.091,511.665 586.422,517.559 583.234,523.725 580.546,530.125 578.374,536.719 576.734,543.464 575.634,550.318 575.083,557.238 575.083,564.18 575.634,571.099 576.734,577.954 578.374,584.699 580.546,591.292 583.234,597.692 586.422,603.858 590.091,609.752 594.215,615.335 598.771,620.573 603.728,625.433 609.055,629.883 614.72,633.896 620.685,637.446 626.913,640.511 633.366,643.072 640.001,645.112 646.777,646.618 653.652,647.581 660.581,647.995 667.522,647.857 674.429,647.168 681.26,645.932 687.971,644.158 694.52,641.856 700.866,639.041 706.967,635.731 712.787,631.946 718.287,627.711 723.433,623.052 728.193,618 732.537,612.585 736.437,606.842 739.867,600.807 742.808,594.519 745.24,588.017 747.147,581.342 748.519,574.537 749.345,567.645 749.621,560.709 "/>
<path clip-path="url(#clip182)" d="M749.621 1039.29 L749.345 1032.36 L748.519 1025.46 L747.147 1018.66 L745.24 1011.98 L742.808 1005.48 L739.867 999.193 L736.437 993.158 L732.537 987.415 L728.193 982 L723.433 976.948 L718.287 972.289 L712.787 968.054 L706.967 964.269 L700.866 960.959 L694.52 958.144 L687.971 955.842 L681.26 954.068 L674.429 952.832 L667.522 952.143 L660.581 952.005 L653.652 952.419 L646.777 953.382 L640.001 954.888 L633.366 956.928 L626.913 959.489 L620.685 962.554 L614.72 966.104 L609.055 970.117 L603.728 974.567 L598.771 979.427 L594.215 984.665 L590.091 990.248 L586.422 996.142 L583.234 1002.31 L580.546 1008.71 L578.374 1015.3 L576.734 1022.05 L575.634 1028.9 L575.083 1035.82 L575.083 1042.76 L575.634 1049.68 L576.734 1056.54 L578.374 1063.28 L580.546 1069.87 L583.234 1076.27 L586.422 1082.44 L590.091 1088.33 L594.215 1093.92 L598.771 1099.16 L603.728 1104.02 L609.055 1108.47 L614.72 1112.48 L620.685 1116.03 L626.913 1119.09 L633.366 1121.65 L640.001 1123.69 L646.777 1125.2 L653.652 1126.16 L660.581 1126.58 L667.522 1126.44 L674.429 1125.75 L681.26 1124.52 L687.971 1122.74 L694.52 1120.44 L700.866 1117.62 L706.967 1114.31 L712.787 1110.53 L718.287 1106.29 L723.433 1101.64 L728.193 1096.58 L732.537 1091.17 L736.437 1085.42 L739.867 1079.39 L742.808 1073.1 L745.24 1066.6 L747.147 1059.93 L748.519 1053.12 L749.345 1046.23 L749.621 1039.29 L749.621 1039.29  Z" fill="#ed5d92" fill-rule="evenodd" fill-opacity="1"/>
<polyline clip-path="url(#clip182)" style="stroke:#000000; stroke-linecap:round; stroke-linejoin:round; stroke-width:4; stroke-opacity:0; fill:none" points="749.621,1039.29 749.345,1032.36 748.519,1025.46 747.147,1018.66 745.24,1011.98 742.808,1005.48 739.867,999.193 736.437,993.158 732.537,987.415 728.193,982 723.433,976.948 718.287,972.289 712.787,968.054 706.967,964.269 700.866,960.959 694.52,958.144 687.971,955.842 681.26,954.068 674.429,952.832 667.522,952.143 660.581,952.005 653.652,952.419 646.777,953.382 640.001,954.888 633.366,956.928 626.913,959.489 620.685,962.554 614.72,966.104 609.055,970.117 603.728,974.567 598.771,979.427 594.215,984.665 590.091,990.248 586.422,996.142 583.234,1002.31 580.546,1008.71 578.374,1015.3 576.734,1022.05 575.634,1028.9 575.083,1035.82 575.083,1042.76 575.634,1049.68 576.734,1056.54 578.374,1063.28 580.546,1069.87 583.234,1076.27 586.422,1082.44 590.091,1088.33 594.215,1093.92 598.771,1099.16 603.728,1104.02 609.055,1108.47 614.72,1112.48 620.685,1116.03 626.913,1119.09 633.366,1121.65 640.001,1123.69 646.777,1125.2 653.652,1126.16 660.581,1126.58 667.522,1126.44 674.429,1125.75 681.26,1124.52 687.971,1122.74 694.52,1120.44 700.866,1117.62 706.967,1114.31 712.787,1110.53 718.287,1106.29 723.433,1101.64 728.193,1096.58 732.537,1091.17 736.437,1085.42 739.867,1079.39 742.808,1073.1 745.24,1066.6 747.147,1059.93 748.519,1053.12 749.345,1046.23 749.621,1039.29 "/>
<path clip-path="url(#clip182)" d="M1133.41 1337.68 L1133.14 1330.75 L1132.31 1323.85 L1130.94 1317.05 L1129.03 1310.37 L1126.6 1303.87 L1123.66 1297.58 L1120.23 1291.55 L1116.33 1285.81 L1111.99 1280.39 L1107.23 1275.34 L1102.08 1270.68 L1096.58 1266.45 L1090.76 1262.66 L1084.66 1259.35 L1078.31 1256.54 L1071.76 1254.23 L1065.05 1252.46 L1058.22 1251.22 L1051.32 1250.53 L1044.37 1250.4 L1037.45 1250.81 L1030.57 1251.77 L1023.79 1253.28 L1017.16 1255.32 L1010.71 1257.88 L1004.48 1260.95 L998.513 1264.5 L992.849 1268.51 L987.521 1272.96 L982.564 1277.82 L978.009 1283.06 L973.884 1288.64 L970.216 1294.53 L967.028 1300.7 L964.339 1307.1 L962.168 1313.69 L960.527 1320.44 L959.428 1327.29 L958.876 1334.21 L958.876 1341.15 L959.428 1348.07 L960.527 1354.93 L962.168 1361.67 L964.339 1368.27 L967.028 1374.67 L970.216 1380.83 L973.884 1386.73 L978.009 1392.31 L982.564 1397.55 L987.521 1402.41 L992.849 1406.86 L998.513 1410.87 L1004.48 1414.42 L1010.71 1417.49 L1017.16 1420.05 L1023.79 1422.09 L1030.57 1423.59 L1037.45 1424.56 L1044.37 1424.97 L1051.32 1424.83 L1058.22 1424.14 L1065.05 1422.91 L1071.76 1421.13 L1078.31 1418.83 L1084.66 1416.01 L1090.76 1412.7 L1096.58 1408.92 L1102.08 1404.69 L1107.23 1400.03 L1111.99 1394.97 L1116.33 1389.56 L1120.23 1383.82 L1123.66 1377.78 L1126.6 1371.49 L1129.03 1364.99 L1130.94 1358.32 L1132.31 1351.51 L1133.14 1344.62 L1133.41 1337.68 L1133.41 1337.68  Z" fill="#ed5d92" fill-rule="evenodd" fill-opacity="1"/>
<polyline clip-path="url(#clip182)" style="stroke:#000000; stroke-linecap:round; stroke-linejoin:round; stroke-width:4; stroke-opacity:0; fill:none" points="1133.41,1337.68 1133.14,1330.75 1132.31,1323.85 1130.94,1317.05 1129.03,1310.37 1126.6,1303.87 1123.66,1297.58 1120.23,1291.55 1116.33,1285.81 1111.99,1280.39 1107.23,1275.34 1102.08,1270.68 1096.58,1266.45 1090.76,1262.66 1084.66,1259.35 1078.31,1256.54 1071.76,1254.23 1065.05,1252.46 1058.22,1251.22 1051.32,1250.53 1044.37,1250.4 1037.45,1250.81 1030.57,1251.77 1023.79,1253.28 1017.16,1255.32 1010.71,1257.88 1004.48,1260.95 998.513,1264.5 992.849,1268.51 987.521,1272.96 982.564,1277.82 978.009,1283.06 973.884,1288.64 970.216,1294.53 967.028,1300.7 964.339,1307.1 962.168,1313.69 960.527,1320.44 959.428,1327.29 958.876,1334.21 958.876,1341.15 959.428,1348.07 960.527,1354.93 962.168,1361.67 964.339,1368.27 967.028,1374.67 970.216,1380.83 973.884,1386.73 978.009,1392.31 982.564,1397.55 987.521,1402.41 992.849,1406.86 998.513,1410.87 1004.48,1414.42 1010.71,1417.49 1017.16,1420.05 1023.79,1422.09 1030.57,1423.59 1037.45,1424.56 1044.37,1424.97 1051.32,1424.83 1058.22,1424.14 1065.05,1422.91 1071.76,1421.13 1078.31,1418.83 1084.66,1416.01 1090.76,1412.7 1096.58,1408.92 1102.08,1404.69 1107.23,1400.03 1111.99,1394.97 1116.33,1389.56 1120.23,1383.82 1123.66,1377.78 1126.6,1371.49 1129.03,1364.99 1130.94,1358.32 1132.31,1351.51 1133.14,1344.62 1133.41,1337.68 "/>
<path clip-path="url(#clip182)" d="M1612 1231.19 L1611.72 1224.25 L1610.89 1217.36 L1609.52 1210.55 L1607.62 1203.88 L1605.18 1197.38 L1602.24 1191.09 L1598.81 1185.06 L1594.91 1179.31 L1590.57 1173.9 L1585.81 1168.84 L1580.66 1164.19 L1575.16 1159.95 L1569.34 1156.17 L1563.24 1152.86 L1556.9 1150.04 L1550.35 1147.74 L1543.64 1145.96 L1536.81 1144.73 L1529.9 1144.04 L1522.96 1143.9 L1516.03 1144.32 L1509.15 1145.28 L1502.38 1146.78 L1495.74 1148.82 L1489.29 1151.39 L1483.06 1154.45 L1477.1 1158 L1471.43 1162.01 L1466.1 1166.46 L1461.15 1171.32 L1456.59 1176.56 L1452.47 1182.14 L1448.8 1188.04 L1445.61 1194.2 L1442.92 1200.6 L1440.75 1207.2 L1439.11 1213.94 L1438.01 1220.8 L1437.46 1227.72 L1437.46 1234.66 L1438.01 1241.58 L1439.11 1248.43 L1440.75 1255.18 L1442.92 1261.77 L1445.61 1268.17 L1448.8 1274.34 L1452.47 1280.23 L1456.59 1285.81 L1461.15 1291.05 L1466.1 1295.91 L1471.43 1300.36 L1477.1 1304.38 L1483.06 1307.93 L1489.29 1310.99 L1495.74 1313.55 L1502.38 1315.59 L1509.15 1317.1 L1516.03 1318.06 L1522.96 1318.47 L1529.9 1318.34 L1536.81 1317.65 L1543.64 1316.41 L1550.35 1314.64 L1556.9 1312.34 L1563.24 1309.52 L1569.34 1306.21 L1575.16 1302.43 L1580.66 1298.19 L1585.81 1293.53 L1590.57 1288.48 L1594.91 1283.06 L1598.81 1277.32 L1602.24 1271.29 L1605.18 1265 L1607.62 1258.5 L1609.52 1251.82 L1610.89 1245.02 L1611.72 1238.12 L1612 1231.19 L1612 1231.19  Z" fill="#ed5d92" fill-rule="evenodd" fill-opacity="1"/>
<polyline clip-path="url(#clip182)" style="stroke:#000000; stroke-linecap:round; stroke-linejoin:round; stroke-width:4; stroke-opacity:0; fill:none" points="1612,1231.19 1611.72,1224.25 1610.89,1217.36 1609.52,1210.55 1607.62,1203.88 1605.18,1197.38 1602.24,1191.09 1598.81,1185.06 1594.91,1179.31 1590.57,1173.9 1585.81,1168.84 1580.66,1164.19 1575.16,1159.95 1569.34,1156.17 1563.24,1152.86 1556.9,1150.04 1550.35,1147.74 1543.64,1145.96 1536.81,1144.73 1529.9,1144.04 1522.96,1143.9 1516.03,1144.32 1509.15,1145.28 1502.38,1146.78 1495.74,1148.82 1489.29,1151.39 1483.06,1154.45 1477.1,1158 1471.43,1162.01 1466.1,1166.46 1461.15,1171.32 1456.59,1176.56 1452.47,1182.14 1448.8,1188.04 1445.61,1194.2 1442.92,1200.6 1440.75,1207.2 1439.11,1213.94 1438.01,1220.8 1437.46,1227.72 1437.46,1234.66 1438.01,1241.58 1439.11,1248.43 1440.75,1255.18 1442.92,1261.77 1445.61,1268.17 1448.8,1274.34 1452.47,1280.23 1456.59,1285.81 1461.15,1291.05 1466.1,1295.91 1471.43,1300.36 1477.1,1304.38 1483.06,1307.93 1489.29,1310.99 1495.74,1313.55 1502.38,1315.59 1509.15,1317.1 1516.03,1318.06 1522.96,1318.47 1529.9,1318.34 1536.81,1317.65 1543.64,1316.41 1550.35,1314.64 1556.9,1312.34 1563.24,1309.52 1569.34,1306.21 1575.16,1302.43 1580.66,1298.19 1585.81,1293.53 1590.57,1288.48 1594.91,1283.06 1598.81,1277.32 1602.24,1271.29 1605.18,1265 1607.62,1258.5 1609.52,1251.82 1610.89,1245.02 1611.72,1238.12 1612,1231.19 "/>
<circle clip-path="url(#clip182)" cx="1737.68" cy="800" r="0.72" fill="#ed5d92" fill-rule="evenodd" fill-opacity="1" stroke="#000000" stroke-opacity="1" stroke-width="3.2"/>
<circle clip-path="url(#clip182)" cx="1524.69" cy="368.812" r="0.72" fill="#ed5d92" fill-rule="evenodd" fill-opacity="1" stroke="#000000" stroke-opacity="1" stroke-width="3.2"/>
<circle clip-path="url(#clip182)" cx="1046.11" cy="262.317" r="0.72" fill="#ed5d92" fill-rule="evenodd" fill-opacity="1" stroke="#000000" stroke-opacity="1" stroke-width="3.2"/>
<circle clip-path="url(#clip182)" cx="662.317" cy="560.709" r="0.72" fill="#ed5d92" fill-rule="evenodd" fill-opacity="1" stroke="#000000" stroke-opacity="1" stroke-width="3.2"/>
<circle clip-path="url(#clip182)" cx="662.317" cy="1039.29" r="0.72" fill="#ed5d92" fill-rule="evenodd" fill-opacity="1" stroke="#000000" stroke-opacity="1" stroke-width="3.2"/>
<circle clip-path="url(#clip182)" cx="1046.11" cy="1337.68" r="0.72" fill="#ed5d92" fill-rule="evenodd" fill-opacity="1" stroke="#000000" stroke-opacity="1" stroke-width="3.2"/>
<circle clip-path="url(#clip182)" cx="1524.69" cy="1231.19" r="0.72" fill="#ed5d92" fill-rule="evenodd" fill-opacity="1" stroke="#000000" stroke-opacity="1" stroke-width="3.2"/>
<path clip-path="url(#clip180)" d="M1723.22 785.799 Q1719.6 785.799 1717.78 789.363 Q1715.97 792.905 1715.97 800.035 Q1715.97 807.141 1717.78 810.706 Q1719.6 814.248 1723.22 814.248 Q1726.85 814.248 1728.66 810.706 Q1730.48 807.141 1730.48 800.035 Q1730.48 792.905 1728.66 789.363 Q1726.85 785.799 1723.22 785.799 M1723.22 782.095 Q1729.03 782.095 1732.08 786.701 Q1735.16 791.285 1735.16 800.035 Q1735.16 808.762 1732.08 813.368 Q1729.03 817.951 1723.22 817.951 Q1717.41 817.951 1714.33 813.368 Q1711.27 808.762 1711.27 800.035 Q1711.27 791.285 1714.33 786.701 Q1717.41 782.095 1723.22 782.095 Z" fill="#000000" fill-rule="evenodd" fill-opacity="1" /><path clip-path="url(#clip180)" d="M1744.19 813.345 L1751.83 813.345 L1751.83 786.979 L1743.52 788.646 L1743.52 784.387 L1751.78 782.72 L1756.46 782.72 L1756.46 813.345 L1764.09 813.345 L1764.09 817.28 L1744.19 817.28 L1744.19 813.345 Z" fill="#000000" fill-rule="evenodd" fill-opacity="1" /><path clip-path="url(#clip180)" d="M1510.41 354.611 Q1506.8 354.611 1504.97 358.175 Q1503.17 361.717 1503.17 368.847 Q1503.17 375.953 1504.97 379.518 Q1506.8 383.059 1510.41 383.059 Q1514.05 383.059 1515.85 379.518 Q1517.68 375.953 1517.68 368.847 Q1517.68 361.717 1515.85 358.175 Q1514.05 354.611 1510.41 354.611 M1510.41 350.907 Q1516.22 350.907 1519.28 355.513 Q1522.36 360.097 1522.36 368.847 Q1522.36 377.573 1519.28 382.18 Q1516.22 386.763 1510.41 386.763 Q1504.6 386.763 1501.52 382.18 Q1498.47 377.573 1498.47 368.847 Q1498.47 360.097 1501.52 355.513 Q1504.6 350.907 1510.41 350.907 Z" fill="#000000" fill-rule="evenodd" fill-opacity="1" /><path clip-path="url(#clip180)" d="M1534.6 382.157 L1550.92 382.157 L1550.92 386.092 L1528.98 386.092 L1528.98 382.157 Q1531.64 379.402 1536.22 374.772 Q1540.83 370.12 1542.01 368.777 Q1544.25 366.254 1545.13 364.518 Q1546.04 362.759 1546.04 361.069 Q1546.04 358.314 1544.09 356.578 Q1542.17 354.842 1539.07 354.842 Q1536.87 354.842 1534.42 355.606 Q1531.99 356.37 1529.21 357.921 L1529.21 353.199 Q1532.03 352.064 1534.49 351.486 Q1536.94 350.907 1538.98 350.907 Q1544.35 350.907 1547.54 353.592 Q1550.73 356.277 1550.73 360.768 Q1550.73 362.898 1549.92 364.819 Q1549.14 366.717 1547.03 369.31 Q1546.45 369.981 1543.35 373.198 Q1540.25 376.393 1534.6 382.157 Z" fill="#000000" fill-rule="evenodd" fill-opacity="1" /><path clip-path="url(#clip180)" d="M1031.35 248.116 Q1027.74 248.116 1025.91 251.681 Q1024.11 255.222 1024.11 262.352 Q1024.11 269.458 1025.91 273.023 Q1027.74 276.565 1031.35 276.565 Q1034.99 276.565 1036.79 273.023 Q1038.62 269.458 1038.62 262.352 Q1038.62 255.222 1036.79 251.681 Q1034.99 248.116 1031.35 248.116 M1031.35 244.412 Q1037.16 244.412 1040.22 249.019 Q1043.3 253.602 1043.3 262.352 Q1043.3 271.079 1040.22 275.685 Q1037.16 280.269 1031.35 280.269 Q1025.54 280.269 1022.47 275.685 Q1019.41 271.079 1019.41 262.352 Q1019.41 253.602 1022.47 249.019 Q1025.54 244.412 1031.35 244.412 Z" fill="#000000" fill-rule="evenodd" fill-opacity="1" /><path clip-path="url(#clip180)" d="M1065.68 260.963 Q1069.04 261.681 1070.91 263.949 Q1072.81 266.218 1072.81 269.551 Q1072.81 274.667 1069.29 277.468 Q1065.77 280.269 1059.29 280.269 Q1057.12 280.269 1054.8 279.829 Q1052.51 279.412 1050.06 278.556 L1050.06 274.042 Q1052 275.176 1054.32 275.755 Q1056.63 276.333 1059.15 276.333 Q1063.55 276.333 1065.84 274.597 Q1068.16 272.861 1068.16 269.551 Q1068.16 266.495 1066.01 264.782 Q1063.88 263.046 1060.06 263.046 L1056.03 263.046 L1056.03 259.204 L1060.24 259.204 Q1063.69 259.204 1065.52 257.838 Q1067.35 256.449 1067.35 253.857 Q1067.35 251.195 1065.45 249.783 Q1063.58 248.347 1060.06 248.347 Q1058.14 248.347 1055.94 248.764 Q1053.74 249.181 1051.1 250.06 L1051.1 245.894 Q1053.76 245.153 1056.08 244.783 Q1058.41 244.412 1060.47 244.412 Q1065.8 244.412 1068.9 246.843 Q1072 249.25 1072 253.37 Q1072 256.241 1070.36 258.232 Q1068.71 260.199 1065.68 260.963 Z" fill="#000000" fill-rule="evenodd" fill-opacity="1" /><path clip-path="url(#clip180)" d="M646.993 546.507 Q643.382 546.507 641.553 550.072 Q639.748 553.614 639.748 560.743 Q639.748 567.85 641.553 571.415 Q643.382 574.956 646.993 574.956 Q650.627 574.956 652.433 571.415 Q654.262 567.85 654.262 560.743 Q654.262 553.614 652.433 550.072 Q650.627 546.507 646.993 546.507 M646.993 542.804 Q652.803 542.804 655.859 547.41 Q658.938 551.993 658.938 560.743 Q658.938 569.47 655.859 574.077 Q652.803 578.66 646.993 578.66 Q641.183 578.66 638.104 574.077 Q635.049 569.47 635.049 560.743 Q635.049 551.993 638.104 547.41 Q641.183 542.804 646.993 542.804 Z" fill="#000000" fill-rule="evenodd" fill-opacity="1" /><path clip-path="url(#clip180)" d="M680.002 547.503 L668.197 565.952 L680.002 565.952 L680.002 547.503 M678.775 543.429 L684.655 543.429 L684.655 565.952 L689.586 565.952 L689.586 569.841 L684.655 569.841 L684.655 577.989 L680.002 577.989 L680.002 569.841 L664.401 569.841 L664.401 565.327 L678.775 543.429 Z" fill="#000000" fill-rule="evenodd" fill-opacity="1" /><path clip-path="url(#clip180)" d="M647.734 1025.09 Q644.123 1025.09 642.294 1028.65 Q640.489 1032.2 640.489 1039.33 Q640.489 1046.43 642.294 1050 Q644.123 1053.54 647.734 1053.54 Q651.368 1053.54 653.174 1050 Q655.002 1046.43 655.002 1039.33 Q655.002 1032.2 653.174 1028.65 Q651.368 1025.09 647.734 1025.09 M647.734 1021.39 Q653.544 1021.39 656.6 1025.99 Q659.678 1030.58 659.678 1039.33 Q659.678 1048.05 656.6 1052.66 Q653.544 1057.24 647.734 1057.24 Q641.924 1057.24 638.845 1052.66 Q635.79 1048.05 635.79 1039.33 Q635.79 1030.58 638.845 1025.99 Q641.924 1021.39 647.734 1021.39 Z" fill="#000000" fill-rule="evenodd" fill-opacity="1" /><path clip-path="url(#clip180)" d="M667.942 1022.01 L686.299 1022.01 L686.299 1025.95 L672.225 1025.95 L672.225 1034.42 Q673.243 1034.07 674.262 1033.91 Q675.28 1033.72 676.299 1033.72 Q682.086 1033.72 685.465 1036.9 Q688.845 1040.07 688.845 1045.48 Q688.845 1051.06 685.373 1054.16 Q681.9 1057.24 675.581 1057.24 Q673.405 1057.24 671.137 1056.87 Q668.891 1056.5 666.484 1055.76 L666.484 1051.06 Q668.567 1052.2 670.789 1052.75 Q673.012 1053.31 675.488 1053.31 Q679.493 1053.31 681.831 1051.2 Q684.169 1049.09 684.169 1045.48 Q684.169 1041.87 681.831 1039.77 Q679.493 1037.66 675.488 1037.66 Q673.613 1037.66 671.738 1038.08 Q669.887 1038.49 667.942 1039.37 L667.942 1022.01 Z" fill="#000000" fill-rule="evenodd" fill-opacity="1" /><path clip-path="url(#clip180)" d="M1030.95 1323.48 Q1027.34 1323.48 1025.51 1327.05 Q1023.7 1330.59 1023.7 1337.72 Q1023.7 1344.82 1025.51 1348.39 Q1027.34 1351.93 1030.95 1351.93 Q1034.58 1351.93 1036.39 1348.39 Q1038.22 1344.82 1038.22 1337.72 Q1038.22 1330.59 1036.39 1327.05 Q1034.58 1323.48 1030.95 1323.48 M1030.95 1319.78 Q1036.76 1319.78 1039.81 1324.38 Q1042.89 1328.97 1042.89 1337.72 Q1042.89 1346.44 1039.81 1351.05 Q1036.76 1355.63 1030.95 1355.63 Q1025.14 1355.63 1022.06 1351.05 Q1019 1346.44 1019 1337.72 Q1019 1328.97 1022.06 1324.38 Q1025.14 1319.78 1030.95 1319.78 Z" fill="#000000" fill-rule="evenodd" fill-opacity="1" /><path clip-path="url(#clip180)" d="M1061.69 1335.82 Q1058.54 1335.82 1056.69 1337.97 Q1054.86 1340.12 1054.86 1343.87 Q1054.86 1347.6 1056.69 1349.78 Q1058.54 1351.93 1061.69 1351.93 Q1064.84 1351.93 1066.67 1349.78 Q1068.52 1347.6 1068.52 1343.87 Q1068.52 1340.12 1066.67 1337.97 Q1064.84 1335.82 1061.69 1335.82 M1070.97 1321.17 L1070.97 1325.43 Q1069.21 1324.59 1067.41 1324.15 Q1065.62 1323.71 1063.87 1323.71 Q1059.24 1323.71 1056.78 1326.84 Q1054.35 1329.96 1054 1336.28 Q1055.37 1334.27 1057.43 1333.2 Q1059.49 1332.12 1061.97 1332.12 Q1067.18 1332.12 1070.18 1335.29 Q1073.22 1338.44 1073.22 1343.87 Q1073.22 1349.2 1070.07 1352.42 Q1066.92 1355.63 1061.69 1355.63 Q1055.69 1355.63 1052.52 1351.05 Q1049.35 1346.44 1049.35 1337.72 Q1049.35 1329.52 1053.24 1324.66 Q1057.13 1319.78 1063.68 1319.78 Q1065.44 1319.78 1067.22 1320.13 Q1069.03 1320.47 1070.97 1321.17 Z" fill="#000000" fill-rule="evenodd" fill-opacity="1" /><path clip-path="url(#clip180)" d="M1510.06 1216.99 Q1506.45 1216.99 1504.62 1220.55 Q1502.82 1224.09 1502.82 1231.22 Q1502.82 1238.33 1504.62 1241.89 Q1506.45 1245.44 1510.06 1245.44 Q1513.7 1245.44 1515.5 1241.89 Q1517.33 1238.33 1517.33 1231.22 Q1517.33 1224.09 1515.5 1220.55 Q1513.7 1216.99 1510.06 1216.99 M1510.06 1213.28 Q1515.87 1213.28 1518.93 1217.89 Q1522.01 1222.47 1522.01 1231.22 Q1522.01 1239.95 1518.93 1244.56 Q1515.87 1249.14 1510.06 1249.14 Q1504.25 1249.14 1501.18 1244.56 Q1498.12 1239.95 1498.12 1231.22 Q1498.12 1222.47 1501.18 1217.89 Q1504.25 1213.28 1510.06 1213.28 Z" fill="#000000" fill-rule="evenodd" fill-opacity="1" /><path clip-path="url(#clip180)" d="M1529.05 1213.91 L1551.27 1213.91 L1551.27 1215.9 L1538.72 1248.47 L1533.84 1248.47 L1545.64 1217.84 L1529.05 1217.84 L1529.05 1213.91 Z" fill="#000000" fill-rule="evenodd" fill-opacity="1" /></svg>
